Allen Iverson - No Crossover the Trial of Allen Iverson (español)

      
      Format : AVI
      Format/Info : Audio Video Interleave
      File size : 1.41 GiB
      Duration : 1h 19mn
      Overall bit rate : 2 530 Kbps
   Video
      Format : MPEG-4 Visual
      Format settings, BVOP : Yes
      Format settings, QPel : No
      Format settings, GMC : No warppoints
      Format settings, Matrix : Custom
      Codec ID : XVID
      Codec ID/Hint : XviD
      Duration : 1h 19mn
      Bit rate : 2 392 Kbps
      Width : 720 pixels
      Height : 576 pixels
      Display aspect ratio : 4/3
      Frame rate : 25.000 fps
      Standard : PAL
      Resolution : 24 bits
      Colorimetry : 4:2:0
      Scan type : Interlaced
      Scan order : Top Field First
      Bits/(Pixel*Frame) : 0.231
      Stream size : 1.33 GiB (95%)
      Writing library : XviD 1.0.0 RC2 (Jambo) (UTC 2004-02-01)
   Audio
      Format : MPEG Audio
      Format version : Version 1
      Format profile : Layer 2
      Codec ID : 50
      Codec ID/Hint : MP1
      Duration : 1h 19mn
      Bit rate mode : Constant
      Bit rate : 128 Kbps
      Channel(s) : 2 channels
      Sampling rate : 48.0 KHz
      Resolution : 16 bits
      Stream size : 73.1 MiB (5%)
      Alignment : Split accross interleaves
      Interleave, duration : 40 ms (1.00 video frame)
      Interleave, preload duration : 150 ms